<svg xmlns="http://www.w3.org/2000/svg" width="1927" height="882" fill="none"><path stroke="#182D32" stroke-linecap="round" stroke-width="4" d="M993.156 4v235.285c0 2.106-.554 4.175-1.608 6l-6.475 11.215m0 0-19.465 33.715a11.9956 11.9956 0 0 0-1.608 6V317.5m21.073-61-6.475-11.215a12.0059 12.0059 0 0 1-1.608-6V4M964 499.457V317.5m0 0-9.392-16.268a11.9901 11.9901 0 0 1-1.608-6V144.5m0 0V4m0 140.5 9.362-16.215a12.0059 12.0059 0 0 0 1.608-6V4M675.5 554.356l33.715 19.466a12.0049 12.0049 0 0 0 6 1.607H736.5m-61-21.073-11.215-6.475a12.0059 12.0059 0 0 0-6-1.608H424.58c-1.049 0-2.093-.137-3.106-.409l-53.948-14.455a11.975 11.975 0 0 0-3.106-.409H256.715c-2.106 0-4.175-.554-6-1.608L228.5 516.566m447 37.79-11.215 6.475a12.0059 12.0059 0 0 1-6 1.608H424.58c-1.049 0-2.093-.138-3.106-.409l-53.948-14.455a11.975 11.975 0 0 0-3.106-.409H228.215c-2.106 0-4.175.554-6 1.607l-23.43 13.528a12.0059 12.0059 0 0 1-6 1.608H126.08c-1.049 0-2.093-.138-3.106-.409l-78.448-21.02a12.0183 12.0183 0 0 0-3.1058-.409H2m734.5 33.358-16.268 9.393a11.9994 11.9994 0 0 1-6 1.607H563.5m173-11 453-.226m-626 11.226H424.58c-1.049 0-2.093.138-3.106.409l-53.948 14.456c-1.013.271-2.057.408-3.106.408H255.08c-1.049 0-2.093.138-3.106.409l-25.448 6.819c-1.013.271-2.057.409-3.106.409h-97.34c-1.049 0-2.093.137-3.106.409l-39.224 10.51m479.75-33.829-16.215-9.362a12.0049 12.0049 0 0 0-6-1.607H424.58c-1.049 0-2.093.137-3.106.409l-53.948 14.455c-1.013.271-2.057.409-3.106.409h-84.84c-1.049 0-2.093-.138-3.106-.409l-49.948-13.384a12.0181 12.0181 0 0 0-3.106-.409h-48.67M2 554.694h39.4202c1.0487 0 2.0928.137 3.1058.408l39.224 10.511M2 631.177h39.4202c1.0487 0 2.0928-.138 3.1058-.409l39.224-10.51m0 0-39.224-10.51a11.9752 11.9752 0 0 0-3.1058-.409H2m81.75-43.726 39.224 10.51c1.013.271 2.057.408 3.106.408h48.67m-91-10.918-39.224 10.51c-1.013.271-2.0571.408-3.1058.408H2m172.75 0-48.724 13.056c-1.013.271-2.057.409-3.106.409H2m0-87.863h198.285c2.106 0 4.175.554 6 1.607l22.215 12.826m0 0-29.715 17.156a11.9956 11.9956 0 0 1-6 1.608H126.08c-1.049 0-2.093-.137-3.106-.409L85.276 524.82a12.0183 12.0183 0 0 0-3.1058-.409H2M891.427 4v234.285c0 2.106.555 4.175 1.608 6L899.799 256m0 0 19.754 34.215a12.0059 12.0059 0 0 1 1.608 6V362.5M899.799 256l10.985-10.985a12.004 12.004 0 0 0 3.515-8.486V4m6.862 495.457V362.5m0 0-59.88-103.715a11.9956 11.9956 0 0 1-1.608-6V196.5M808 4l26.394 45.7154a12.0023 12.0023 0 0 1 1.608 6v74.0696c0 2.106.554 4.175 1.607 6l5.032 8.715m17.032 52v-19.285c0-2.106-.555-4.175-1.608-6L842.641 144.5m17.032 52 10.973-10.973c2.25-2.25 3.515-5.303 3.515-8.485V35.2154c0-2.1065-.555-4.1758-1.608-6L857.995 4m-15.354 140.5 7.985-7.985a11.9999 11.9999 0 0 0 3.515-8.486V45.2154c0-2.1064-.554-4.1758-1.608-6L832.202 4M615.5 671.796h56.285c2.106 0 4.175-.555 6-1.608l56.43-32.58a11.9956 11.9956 0 0 1 6-1.608h445.565c2.11 0 4.18.554 6 1.608l56.44 32.58c1.82 1.053 3.89 1.608 6 1.608h56.28m-695 0h-19.285c-2.106 0-4.175.554-6 1.607L563.5 688.828m52-17.032-10.973-10.973a11.9993 11.9993 0 0 0-8.485-3.515H454.188c-2.089 0-4.142.545-5.956 1.582l-63.492 36.299m178.76-6.361-8.715 5.031a11.9956 11.9956 0 0 1-6 1.608h-74.07c-2.106 0-4.175.554-6 1.608l-237.93 137.369a12.0059 12.0059 0 0 1-6 1.608h-92.57c-2.106 0-4.175.554-6 1.607L110 847.021m453.5-158.193-7.985-7.986a12.0031 12.0031 0 0 0-8.486-3.514h-82.814c-2.106 0-4.175.554-6 1.607l-168.93 97.532a11.9956 11.9956 0 0 1-6 1.608H240M2 879.064h49.2846c2.1064 0 4.1758-.554 6-1.607l11.0904-6.403M2 748.308h136.726c2.107 0 4.176.554 6 1.607l22.995 13.276M240 778.075h-43.285c-2.106 0-4.175-.554-6-1.608l-22.994-13.276M240 778.075 206.874 797.2a12.0004 12.0004 0 0 1-6 1.608h-68.659c-2.106 0-4.175.554-6 1.607l-13.43 7.755a12.0049 12.0049 0 0 1-6 1.607H46.2154c-2.1065 0-4.1758-.554-6-1.607l-17.4308-10.064a12.0023 12.0023 0 0 0-6-1.608H2m165.721-33.307-12.89 7.442M2 778.075h24.7846c2.1065 0 4.1758.554 6 1.608l21.9308 12.661a11.992 11.992 0 0 0 6 1.608h18.5692a11.992 11.992 0 0 0 6-1.608l21.9304-12.661a11.9956 11.9956 0 0 1 6-1.608h25.511c2.107 0 4.176-.554 6-1.608l10.105-5.834m0 0-10.105-5.834a12.0004 12.0004 0 0 0-6-1.608H94.7154c-2.1064 0-4.1758.555-6 1.608l-10.9308 6.311a12.0023 12.0023 0 0 1-6 1.608H60.7154c-2.1064 0-4.1758-.555-6-1.608l-10.9308-6.311a12.0023 12.0023 0 0 0-6-1.608H2m108 83.83-29.6285-17.106a12.0013 12.0013 0 0 0-6-1.607H33.2154c-2.1064 0-4.1758-.555-6-1.608L2 812.142m108 34.879-27.75 16.022m0 0-21.9654-12.682a12.0026 12.0026 0 0 0-6-1.608H2m80.25 14.29-13.875 8.011m0 0-13.5904-7.847a12.0026 12.0026 0 0 0-6-1.608H2m100.235-132.411h54.933c2.107 0 4.176.554 6 1.608l27.547 15.904a12.0059 12.0059 0 0 0 6 1.608h86.796c1.963 0 3.895-.482 5.629-1.402l72.422-38.467 23.178-13.25m-282.505 33.999H2m100.235 0L63.2846 706.7a12.0026 12.0026 0 0 0-6-1.608H2m360-23.032-30.45 17.581a12.0049 12.0049 0 0 1-6 1.607h-48.835c-2.106 0-4.175-.554-6-1.607l-29.165-16.839a11.9956 11.9956 0 0 0-6-1.608h-53.315M362 682.06l22.74 13.129M362 682.06l-30.45-17.581a12.0049 12.0049 0 0 0-6-1.607h-93.335c-2.106 0-4.175-.555-6-1.608L185.02 637.48a11.9956 11.9956 0 0 0-6-1.608H83.5798c-1.0487 0-2.0928.137-3.1058.409l-37.948 10.168a12.0177 12.0177 0 0 1-3.1058.409H2m180.235 34.336-38.608 22.291a12.0049 12.0049 0 0 1-6 1.607H105.45c-2.106 0-4.175-.554-5.9996-1.607l-14.6658-8.468a12.0013 12.0013 0 0 0-6-1.607H2m180.235-12.216-20.867-12.048M2 668.084h37.4202c1.0487 0 2.0929-.137 3.1058-.409l37.948-10.168a12.0183 12.0183 0 0 1 3.1058-.409h53.7052c2.106 0 4.175.555 6 1.608l18.083 10.44m0 0-16.642 9.608a12.0004 12.0004 0 0 1-6 1.608H2m614.5-215.093h56.285c2.106 0 4.175.554 6 1.607l53.646 30.973a12.0004 12.0004 0 0 0 6 1.608H1182l67.22-41.548c1.82-1.053 3.89-1.608 6-1.608h26.53m-665.25 8.968h-19.285c-2.106 0-4.175-.555-6-1.608L564.5 448.237m52 17.032-10.973 10.973a12.0025 12.0025 0 0 1-8.485 3.514H455.188c-2.089 0-4.142-.545-5.956-1.582l-86.67-49.549-36.98-19.641M564.5 448.237l-8.715-5.032a12.0059 12.0059 0 0 0-6-1.608h-74.07c-2.106 0-4.175-.554-6-1.607l-237.93-137.37a12.0049 12.0049 0 0 0-6-1.607h-92.57c-2.106 0-4.175-.555-6-1.608L111 290.043m453.5 158.194-7.985 7.985a11.9999 11.9999 0 0 1-8.486 3.515h-82.814c-2.106 0-4.175-.555-6-1.608l-168.93-97.532a12.0059 12.0059 0 0 0-6-1.608H241M3 258h49.2846c2.1064 0 4.1758.554 6 1.608l11.0904 6.403M3 388.757h136.726c2.107 0 4.176-.555 6-1.608l22.995-13.276M241 358.989h-43.285c-2.106 0-4.175.555-6 1.608l-22.994 13.276M241 358.989l-33.126-19.125a11.9994 11.9994 0 0 0-6-1.607h-68.659c-2.106 0-4.175-.555-6-1.608l-13.43-7.754a11.9956 11.9956 0 0 0-6-1.608H47.2154a11.992 11.992 0 0 0-6 1.608l-17.4308 10.063a11.992 11.992 0 0 1-6 1.608H3m165.721 33.307-12.89-7.442M3 358.989h24.7846c2.1065 0 4.1758-.554 6-1.607l21.9308-12.662a12.0023 12.0023 0 0 1 6-1.608h18.5692c2.1065 0 4.1758.555 6 1.608l21.9304 12.662a12.0049 12.0049 0 0 0 6 1.607h25.511c2.107 0 4.176.555 6 1.608l10.105 5.834m0 0-10.105 5.834a11.9901 11.9901 0 0 1-6 1.608H95.7154c-2.1064 0-4.1758-.554-6-1.608l-10.9308-6.311a12.0013 12.0013 0 0 0-6-1.607H61.7154c-2.1064 0-4.1758.554-6 1.607l-10.9308 6.311a11.992 11.992 0 0 1-6 1.608H3m108-83.83-29.6285 17.106a12.0023 12.0023 0 0 1-6 1.608H34.2154c-2.1064 0-4.1758.554-6 1.607L3 324.922m108-34.879-27.75-16.022m0 0-21.9654 12.682a12.0026 12.0026 0 0 1-6 1.608H3m80.25-14.29-13.875-8.01m0 0-13.5904 7.846a12.0026 12.0026 0 0 1-6 1.608H3m0 204.291h97.02c2.106 0 4.175-.554 6-1.607l41.195-23.785a12.0049 12.0049 0 0 1 6-1.607h93.335c2.106 0 4.175-.555 6-1.608L283 433.568m-179.765-25.692h54.933c2.107 0 4.176-.554 6-1.607l27.547-15.905a12.0049 12.0049 0 0 1 6-1.607h86.796c1.963 0 3.895.481 5.629 1.402l35.442 18.825m-222.347-1.108H3m100.235 0-38.9504 22.488a11.9923 11.9923 0 0 1-6 1.608H3m322.582-22.988L283 433.568m0 0-30.45-17.58a12.0059 12.0059 0 0 0-6-1.608h-48.835c-2.106 0-4.175.555-6 1.608l-29.165 16.839a12.0049 12.0049 0 0 1-6 1.607h-50.1c-2.106 0-4.175.555-6 1.608l-36.1654 20.88a11.9923 11.9923 0 0 1-6 1.608H3m1247.5 137.746-33.72-19.465c-1.82-1.053-3.89-1.608-6-1.608h-21.28m61 21.073 11.22 6.476c1.82 1.053 3.89 1.607 6 1.607h233.7c1.05 0 2.09.138 3.11.409l53.94 14.456c1.02.271 2.06.409 3.11.409h107.7c2.11 0 4.18.554 6 1.607l22.22 12.826m-447-37.79 11.22-6.475c1.82-1.053 3.89-1.607 6-1.607h233.7c1.05 0 2.09.137 3.11.408l53.94 14.456c1.02.271 2.06.409 3.11.409h136.2c2.11 0 4.18-.555 6-1.608l23.44-13.528c1.82-1.053 3.89-1.607 6-1.607h66.7c1.05 0 2.09.137 3.11.408l78.44 21.021c1.02.271 2.06.408 3.11.408H1924m-734.5-33.358 16.27-9.392c1.82-1.053 3.89-1.608 6-1.608h150.73m0 0h138.92c1.05 0 2.09-.137 3.11-.409l53.94-14.455c1.02-.271 2.06-.409 3.11-.409h109.34c1.05 0 2.09-.137 3.11-.409l25.44-6.819c1.02-.271 2.06-.408 3.11-.408h97.34c1.05 0 2.09-.138 3.11-.409l39.22-10.51m-479.75 33.828 16.22 9.362c1.82 1.053 3.89 1.608 6 1.608h116.7c1.05 0 2.09-.138 3.11-.409l53.94-14.455c1.02-.272 2.06-.409 3.11-.409h84.84c1.05 0 2.09.137 3.11.409l49.94 13.383c1.02.272 2.06.409 3.11.409h48.67M1924 595.939h-39.42c-1.05 0-2.09-.138-3.11-.409l-39.22-10.51m81.75-65.564h-39.42c-1.05 0-2.09.137-3.11.409l-39.22 10.51m0 0 39.22 10.51c1.02.271 2.06.409 3.11.409H1924m-81.75 43.726-39.22-10.51c-1.02-.271-2.06-.409-3.11-.409h-48.67m91 10.919 39.22-10.51c1.02-.271 2.06-.409 3.11-.409H1924m-172.75 0 48.72-13.055c1.02-.272 2.06-.409 3.11-.409H1924m0 87.863h-198.28c-2.11 0-4.18-.554-6-1.608l-22.22-12.826m0 0 29.72-17.156c1.82-1.053 3.89-1.608 6-1.608h66.7c1.05 0 2.09.138 3.11.409l37.69 10.101c1.02.272 2.06.409 3.11.409H1924m-612.5-169.92h19.28c2.11 0 4.18-.554 6-1.607l26.72-15.425m-52 17.032 10.97 10.973c2.25 2.251 5.31 3.515 8.49 3.515h141.85c2.09 0 4.14-.545 5.96-1.582l63.49-36.299m-230.76 23.393h-29.75m81.75-17.032 8.72-5.031c1.82-1.054 3.89-1.608 6-1.608h74.06c2.11 0 4.18-.554 6-1.608l237.94-137.369c1.82-1.053 3.89-1.608 6-1.608h92.56c2.11 0 4.18-.554 6-1.607l16.22-9.362m-453.5 158.193 7.99 7.986c2.25 2.25 5.3 3.514 8.48 3.514h82.81c2.11 0 4.18-.554 6-1.607l168.94-97.532c1.82-1.053 3.89-1.608 6-1.608H1687m238-100.989h-49.28c-2.11 0-4.18.554-6 1.607l-11.1 6.403M1925 379.789h-136.73c-2.1 0-4.17-.554-6-1.607l-22.99-13.276M1687 350.022h43.28c2.11 0 4.18.555 6 1.608l23 13.276M1687 350.022l33.13-19.125c1.82-1.053 3.89-1.608 6-1.608h68.65c2.11 0 4.18-.554 6-1.607l13.44-7.755c1.82-1.053 3.89-1.607 6-1.607h60.56c2.11 0 4.18.554 6 1.607l17.44 10.064c1.82 1.053 3.89 1.608 6 1.608H1925m-165.72 33.307 12.89-7.442m152.83-7.442h-24.78c-2.11 0-4.18-.554-6-1.608l-21.94-12.661c-1.82-1.054-3.89-1.608-6-1.608h-18.56c-2.11 0-4.18.554-6 1.608l-21.94 12.661c-1.82 1.054-3.89 1.608-6 1.608h-25.51c-2.1 0-4.17.555-6 1.608l-10.1 5.834m0 0 10.1 5.834c1.83 1.053 3.9 1.608 6 1.608h44.01c2.11 0 4.18-.555 6-1.608l10.94-6.311c1.82-1.053 3.89-1.608 6-1.608h11.06c2.11 0 4.18.555 6 1.608l10.94 6.311c1.82 1.053 3.89 1.608 6 1.608H1925m-108-83.83 29.63 17.106c1.82 1.053 3.89 1.607 6 1.607h41.15c2.11 0 4.18.555 6 1.608l25.22 14.558m-108-34.879 27.75-16.022m0 0 21.97 12.682c1.82 1.053 3.89 1.608 6 1.608H1925m-80.25-14.29 13.87-8.011m0 0 13.6 7.847c1.82 1.053 3.89 1.608 6 1.608H1925m-100.24 132.411h-54.93c-2.1 0-4.17-.555-6-1.608l-27.55-15.904c-1.82-1.053-3.89-1.608-6-1.608h-86.79c-1.96 0-3.9.482-5.63 1.402l-72.42 38.467-23.18 13.25m282.5-33.999H1925m-100.24 0 38.96 22.488c1.82 1.053 3.89 1.608 6 1.608H1925m-360 23.032 30.45-17.581c1.82-1.053 3.89-1.607 6-1.607h48.83c2.11 0 4.18.554 6 1.607l29.17 16.839c1.82 1.054 3.89 1.608 6 1.608h53.31m-179.76-.866-22.74-13.129m22.74 13.129 30.45 17.581c1.82 1.053 3.89 1.607 6 1.607h93.33c2.11 0 4.18.555 6 1.608l41.2 23.784c1.82 1.054 3.89 1.608 6 1.608h95.44c1.05 0 2.09-.137 3.11-.409l37.94-10.168c1.02-.271 2.06-.409 3.11-.409H1925m-180.24-34.336 38.61-22.291c1.83-1.053 3.9-1.607 6-1.607h32.18c2.11 0 4.18.554 6 1.607l14.67 8.468c1.82 1.053 3.89 1.607 6 1.607H1925m-180.24 12.216 20.87 12.048m159.37 1.062h-37.42c-1.05 0-2.09.137-3.11.409l-37.94 10.168c-1.02.271-2.06.409-3.11.409h-53.7c-2.11 0-4.18-.555-6-1.608l-18.09-10.44m0 0 16.64-9.608c1.83-1.053 3.9-1.608 6-1.608H1925m-643.25 8.566 90.47-52.23c1.82-1.053 3.89-1.608 6-1.608h74.06c2.11 0 4.18-.554 6-1.607l236.94-136.792c1.82-1.054 3.89-1.608 6-1.608h93.56c2.11 0 4.18-.555 6-1.608l71.44-41.24c1.82-1.054 3.89-1.608 6-1.608H1925m-614.5 453.796h19.28c2.11 0 4.18.554 6 1.607l26.72 15.425m-52-17.032 10.97-10.973c2.25-2.251 5.31-3.515 8.49-3.515h141.85c2.09 0 4.14.545 5.96 1.582l86.67 49.549 36.98 19.642m-238.92-39.253 8.72 5.031c1.82 1.054 3.89 1.608 6 1.608h74.06c2.11 0 4.18.554 6 1.608l237.94 137.369c1.82 1.053 3.89 1.608 6 1.608h92.56c2.11 0 4.18.554 6 1.607l16.22 9.362m-453.5-158.193 7.99-7.986c2.25-2.25 5.3-3.514 8.48-3.514h82.81c2.11 0 4.18.554 6 1.607l168.94 97.532c1.82 1.054 3.89 1.608 6 1.608H1686m238 100.989h-49.28c-2.11 0-4.18-.554-6-1.607l-11.1-6.403M1924 748.308h-136.73c-2.1 0-4.17.554-6 1.607l-22.99 13.276M1686 778.075h43.28c2.11 0 4.18-.554 6-1.608l23-13.276M1686 778.075l33.13 19.125c1.82 1.053 3.89 1.608 6 1.608h68.65c2.11 0 4.18.554 6 1.607l13.44 7.755c1.82 1.053 3.89 1.607 6 1.607h60.56c2.11 0 4.18-.554 6-1.607l17.44-10.064c1.82-1.053 3.89-1.608 6-1.608H1924m-165.72-33.307 12.89 7.442m152.83 7.442h-24.78c-2.11 0-4.18.554-6 1.608l-21.94 12.661c-1.82 1.054-3.89 1.608-6 1.608h-18.56c-2.11 0-4.18-.554-6-1.608l-21.94-12.661c-1.82-1.054-3.89-1.608-6-1.608h-25.51c-2.1 0-4.17-.554-6-1.608l-10.1-5.834m0 0 10.1-5.834c1.83-1.053 3.9-1.608 6-1.608h44.01c2.11 0 4.18.555 6 1.608l10.94 6.311c1.82 1.053 3.89 1.608 6 1.608h11.06c2.11 0 4.18-.555 6-1.608l10.94-6.311c1.82-1.053 3.89-1.608 6-1.608H1924m-108 83.83 29.63-17.106c1.82-1.053 3.89-1.607 6-1.607h41.15c2.11 0 4.18-.555 6-1.608l25.22-14.558m-108 34.879 27.75 16.022m0 0 21.97-12.682c1.82-1.053 3.89-1.608 6-1.608H1924m-80.25 14.29 13.87 8.011m0 0 13.6-7.847c1.82-1.053 3.89-1.608 6-1.608H1924m0-204.291h-97.02c-2.11 0-4.18.554-6 1.608l-41.2 23.784c-1.82 1.053-3.89 1.608-6 1.608h-93.33c-2.11 0-4.18.554-6 1.607L1644 703.496m179.76 25.692h-54.93c-2.1 0-4.17.554-6 1.608l-27.55 15.904c-1.82 1.053-3.89 1.608-6 1.608h-86.79c-1.96 0-3.9-.482-5.63-1.402l-35.44-18.825m222.34 1.107H1924m-100.24 0 38.96-22.488c1.82-1.053 3.89-1.608 6-1.608H1924m-322.58 22.989 42.58-24.585m0 0 30.45 17.58c1.82 1.054 3.89 1.608 6 1.608h48.83c2.11 0 4.18-.554 6-1.608l29.17-16.838c1.82-1.054 3.89-1.608 6-1.608h50.1c2.11 0 4.18-.555 6-1.608l36.17-20.88c1.82-1.053 3.89-1.608 6-1.608H1924M1086 4v55.2206c0 2.1064-.55 4.1757-1.61 6l-18.18 31.4974m0 0-18.19 31.497c-1.05 1.825-1.61 3.894-1.61 6v85.57c0 2.106-.55 4.175-1.6 6l-37.2 64.43c-1.06 1.825-1.61 3.894-1.61 6V344m60.21-247.282V51.5m0 0V4m0 47.5-18.19-31.4974c-1.05-1.8242-1.61-3.8936-1.61-6V4M1006 499.457V344m0 0 68.25-118.215c1.05-1.825 1.61-3.894 1.61-6V177m39.58-173v55.2206c0 2.1064-.55 4.1757-1.6 6l-36.37 62.9944c-1.06 1.825-1.61 3.894-1.61 6V177m0 0 64.54-111.7794c1.05-1.8243 1.6-3.8936 1.6-6V4m782 150.18h-134.78c-2.11 0-4.18.554-6 1.607l-239.94 138.525c-1.82 1.053-3.89 1.607-6 1.607h-66.56c-2.11 0-4.18.555-6 1.608l-198.22 114.44m0 0-75.22 43.425c-1.82 1.054-3.89 1.608-6 1.608h-94.78m176-45.033h30.28c2.11 0 4.18-.555 6-1.608l60.94-35.178c1.82-1.054 3.89-1.608 6-1.608H1414M1924 190.5h-41.19c-2.11 0-4.18.554-6 1.608l-71.03 41.004c-1.82 1.054-3.89 1.608-6 1.608h-94.56c-2.11 0-4.18.555-6 1.608l-234.94 135.637c-1.82 1.053-3.89 1.608-6 1.608H1414m0 0 78.22-45.158c1.82-1.053 3.89-1.608 6-1.608h17.56c2.11 0 4.18-.554 6-1.607l198.94-114.853c1.82-1.053 3.89-1.608 6-1.608h36.53M1924 182.181h-71.78c-2.11 0-4.18.555-6 1.608l-40.44 23.343c-1.82 1.053-3.89 1.607-6 1.607h-36.53m0 0 65.18-37.631c1.82-1.054 3.89-1.608 6-1.608H1924M1045.5 457h45m0 0 77.5-44.745m756-350.4513-84.22 48.6223c-1.82 1.053-3.89 1.607-6 1.607h-44.56c-2.11 0-4.18.555-6 1.608l-214.94 124.09c-1.82 1.053-3.89 1.608-6 1.608h-45.78M1168 412.255l296.72-171.308c1.82-1.054 3.89-1.608 6-1.608h45.78M1168 412.255h48.78c2.11 0 4.18-.554 6-1.607l241.94-139.679c1.82-1.053 3.89-1.608 6-1.608h66.56c2.11 0 4.18-.554 6-1.608l239.94-138.524c1.82-1.053 3.89-1.607 6-1.607H1815m109-33.7754-55.72 32.1674c-1.82 1.053-3.89 1.608-6 1.608H1815m0 0 19.22 11.094c1.82 1.053 3.89 1.607 6 1.607H1924m-407.5 99.016 266.72-153.9883c1.82-1.0532 3.89-1.6077 6-1.6077h9.78m125-43.3012-72.22 41.6935c-1.82 1.0533-3.89 1.6077-6 1.6077H1799m0 0 125-72.1688M1045.5 499.457v-79.242c0-2.106.55-4.175 1.61-6l8.78-15.215M1233.43 3v59.7846c0 2.1064-.56 4.1758-1.61 6l-51.06 88.4304c-1.05 1.825-1.6 3.894-1.6 6v19.07c0 2.106-.56 4.175-1.61 6L1113.05 300m-46.77 81v-46.285c0-2.106.56-4.175 1.61-6l38.5-66.684c1.06-1.824 1.61-3.893 1.61-6V221m-41.72 160 46.77-81m-46.77 81-10.39 18M1168.33 3v59.7846c0 2.1064-.55 4.1758-1.6 6l-57.12 98.9304c-1.06 1.825-1.61 3.894-1.61 6V221m0 0 87.88-152.2154c1.05-1.8242 1.61-3.8936 1.61-6V3m-84.44 297h36.52c4.29 0 8.25-2.287 10.39-6l53.7-93m0 0 27.13-47c2.15-3.713 6.11-6 10.4-6H1279m-65.34 53v-49.785c0-2.106.55-4.175 1.61-6l44.12-76.4304c1.06-1.8242 1.61-3.8936 1.61-6V3m18 145h42.78c2.11 0 4.18-.554 6-1.608l35.97-20.764M1279 148l37.82-65.5M1332.98 3v48.2846c0 2.1064-.55 4.1758-1.61 6L1316.82 82.5m0 0-22.58-13.0359c-3.72-2.1436-6-6.1051-6-10.3923V3m-232.35 396 86.83-50.127c1.82-1.054 3.89-1.608 6-1.608h19.61M1902.12 3l-106.34 61.3923c-1.82 1.0532-3.89 1.6077-6 1.6077h-30.44c-2.11 0-4.18.5545-6 1.6077L1536.58 192.751c-1.82 1.053-3.89 1.607-6 1.607h-48.86c-2.11 0-4.18.555-6 1.608l-259.28 149.691c-1.82 1.054-3.89 1.608-6 1.608h-42.11m0 0L1222 316.28M1860.8 3l-65.02 37.5341c-1.82 1.0532-3.89 1.6077-6 1.6077h-30.44c-2.11 0-4.18.5545-6 1.6077L1536.58 168.892c-1.82 1.054-3.89 1.608-6 1.608h-52.87c-2.1 0-4.17.554-6 1.608L1222 316.28m0 0v-32.852c0-4.287 2.29-8.248 6-10.392L1318.13 221M1636 56.9279v7.858c0 4.2872-2.29 8.2487-6 10.3923l-93.42 53.9338c-1.82 1.053-3.89 1.608-6 1.608h-52.87c-2.1 0-4.17.554-6 1.607L1318.13 221M1636 56.9279 1729.41 3M1636 56.9279V29.4282c0-4.2872 2.29-8.2487 6-10.3923L1669.77 3m-351.64 218v-37.072c0-4.287 2.29-8.249 6-10.392l147.58-85.2087c1.83-1.0532 3.9-1.6077 6-1.6077h52.87c2.11 0 4.18-.5545 6-1.6077l31.92-18.4267c3.71-2.1436 6-6.1051 6-10.3923V3m-102.66 30.1106v23.1823c0 4.2872-2.29 8.2487-6 10.3923l-63.34 36.5698m69.34-70.1444V3m0 30.1106L1523.99 3M1402.5 103.255V66m0 37.255-38.75 22.373M1402.5 66V3m0 63 32.11-18.5359c3.71-2.1436 6-6.1051 6-10.3923V3m-76.86 122.628V70.9706c0-3.1826 1.26-6.2349 3.51-8.4853L1373 56.75M1382.25 3v39.5294c0 3.1826-1.26 6.2349-3.51 8.4853L1373 56.75m0 0-10.02-5.7859c-3.71-2.1436-6-6.1051-6-10.3923V3M2 153.18h134.785c2.106 0 4.175.554 6 1.607l239.93 138.525a12.0049 12.0049 0 0 0 6 1.607h66.57c2.106 0 4.175.555 6 1.608L659.5 410.967m0 0 75.215 43.425a11.9956 11.9956 0 0 0 6 1.608H835.5m-176-45.033h-30.285c-2.106 0-4.175-.555-6-1.608l-60.93-35.178a11.9956 11.9956 0 0 0-6-1.608H512M2 189.5h41.1931c2.1065 0 4.1758.554 6 1.608l71.0219 41.004a11.9956 11.9956 0 0 0 6 1.608h94.57c2.106 0 4.175.555 6 1.608l234.93 135.637a12.0059 12.0059 0 0 0 6 1.608H512m0 0-78.215-45.158a12.0059 12.0059 0 0 0-6-1.608h-17.57c-2.106 0-4.175-.554-6-1.607l-198.93-114.853a12.0059 12.0059 0 0 0-6-1.608H162.75M2 181.181h71.7846c2.1065 0 4.1758.555 6 1.608l40.4304 23.343a12.0049 12.0049 0 0 0 6 1.607h36.535m0 0-65.18-37.631a11.992 11.992 0 0 0-6-1.608H2m878.5 286.892-45 .608m0 0L758 411.255M2 60.8037l84.2154 48.6223a12.0013 12.0013 0 0 0 6 1.607h44.5696c2.106 0 4.175.555 6 1.608l214.93 124.09a12.0059 12.0059 0 0 0 6 1.608H409.5M758 411.255 461.285 239.947a11.9956 11.9956 0 0 0-6-1.608H409.5M758 411.255h-48.785c-2.106 0-4.175-.554-6-1.607l-241.93-139.679a12.0059 12.0059 0 0 0-6-1.608h-66.57c-2.106 0-4.175-.554-6-1.608l-239.93-138.524a12.0049 12.0049 0 0 0-6-1.607H111M2 92.8466l55.7154 32.1674a12.0023 12.0023 0 0 0 6 1.608H111m0 0-19.2154 11.094a12.0013 12.0013 0 0 1-6 1.607H2m407.5 99.016L142.785 84.3507a12.0035 12.0035 0 0 0-6-1.6077H127M2 39.4418l72.2154 41.6935a11.999 11.999 0 0 0 6 1.6077H127m0 0L2 10.5742M880.5 499.457v-80.242c0-2.106-.554-4.175-1.608-6L870.108 398M692.573 2v59.7846c0 2.1064.554 4.1758 1.607 6l51.056 88.4304a12.0049 12.0049 0 0 1 1.607 6v19.07c0 2.106.555 4.175 1.608 6L812.95 299m46.765 81v-46.285c0-2.106-.554-4.175-1.607-6l-38.5-66.684a12.0004 12.0004 0 0 1-1.608-6V220m41.715 160-46.765-81m46.765 81 10.393 18M757.667 2v59.7846c0 2.1064.554 4.1758 1.608 6l57.117 98.9304a11.9956 11.9956 0 0 1 1.608 6V220m0 0L730.118 67.7846a12.0016 12.0016 0 0 1-1.607-6V2m84.439 297h-36.522c-4.287 0-8.249-2.287-10.392-6l-53.694-93m0 0-27.135-47c-2.144-3.713-6.105-6-10.392-6H647m65.342 53v-49.785c0-2.106-.554-4.175-1.607-6l-44.128-76.4304a12.0016 12.0016 0 0 1-1.607-6V2m-18 145h-42.785c-2.106 0-4.175-.554-6-1.608l-35.965-20.764M647 147l-37.816-65.5M593.018 2v48.2846c0 2.1064.554 4.1758 1.607 6L609.184 81.5m0 0 22.578-13.0359c3.713-2.1436 6-6.1051 6-10.3923V2m232.346 396-86.823-50.127a11.9956 11.9956 0 0 0-6-1.608h-19.618M23.8808 2 130.215 63.3923a12.0035 12.0035 0 0 0 6 1.6077h30.447c2.107 0 4.176.5545 6 1.6077L389.416 191.751a12.0022 12.0022 0 0 0 6 1.607h48.869c2.106 0 4.175.555 6 1.608l259.273 149.691a11.9901 11.9901 0 0 0 6 1.608h42.109m0 0L704 315.28M65.2044 2l65.0106 37.5341a12.0035 12.0035 0 0 0 6 1.6077h30.447c2.107 0 4.176.5545 6 1.6077L389.416 167.892a11.9929 11.9929 0 0 0 6 1.608h52.87c2.106 0 4.175.554 6 1.608L704 315.28m0 0v-32.852c0-4.287-2.287-8.248-6-10.392L607.871 220M290 55.9279v7.858c0 4.2872 2.287 8.2487 6 10.3923l93.416 53.9338a12.0031 12.0031 0 0 0 6 1.608h52.87c2.106 0 4.175.554 6 1.607L607.871 220M290 55.9279 196.594 2M290 55.9279V28.4282c0-4.2872-2.287-8.2487-6-10.3923L256.225 2m351.646 218v-37.072c0-4.287-2.287-8.249-6-10.392L454.286 87.3273a12.0035 12.0035 0 0 0-6-1.6077H427.5m26.659-53.609v23.1823c0 4.2872 2.287 8.2487 6 10.3923L523.5 102.255m-69.341-70.1444V2m0 30.1106L402.006 2M523.5 102.255V65m0 37.255 38.75 22.373M523.5 65V2m0 63-32.105-18.5359c-3.713-2.1436-6-6.1051-6-10.3923V2m76.855 122.628V69.9706c0-3.1826-1.264-6.2349-3.515-8.4853L553 55.75M543.75 2v39.5294c0 3.1826 1.264 6.2349 3.515 8.4853L553 55.75m0 0 10.021-5.7859c3.713-2.1436 6-6.1051 6-10.3923V2M324.27 2v37.5718c0 4.2872 2.287 8.2487 6 10.3923l59.146 34.1478a12.0008 12.0008 0 0 0 6 1.6077H427.5m0 0-61.93-35.7555c-3.713-2.1436-6-6.1051-6-10.3923V2"/></svg>